# xmcd CD database file
#
# Track frame offsets:
#	150
#	10763
#	23306
#	35215
#	46093
#	60440
#	72732
#	82642
#	93834
#	104517
#	114601
#	127081
#
# Disc length: 1880 seconds
#
# Revision: 0
# Processed by: cddbd v1.5.2PL0 Copyright (c) Steve Scherf et al.
# Submitted via: CDex 1.70beta2
#
DISCID=9107560c
DTITLE=Phair, Jimmy - Cdn. - ON -OVM - Calabogie - Country Songs
DYEAR=2004
DGENRE=Country
TTITLE0=The Door
TTITLE1=The Grand Tour
TTITLE2=Four In thee Morning
TTITLE3=Your Life Is One Bad Habit
TTITLE4=It Rains Just the Same In Missouri
TTITLE5=Ladies Love Outlaws
TTITLE6=You Always Look Your Best (Here In My Ar,s)
TTITLE7=Your Love Is the Key
TTITLE8=Her Name Is...
TTITLE9=Indian Lake
TTITLE10=Another Stroh Light Night Home
TTITLE11=Right Out of House and Home
EXTD=YEAR: 2004
EXTT0=
EXTT1=
EXTT2=
EXTT3=
EXTT4=
EXTT5=
EXTT6=
EXTT7=
EXTT8=
EXTT9=
EXTT10=
EXTT11=
PLAYORDER=
